<svg width="1350" height="681" viewBox="0 0 1350 681" fill="none" xmlns="http://www.w3.org/2000/svg">
<path d="M446.923 488.155C446.923 485.385 447.846 484.461 450.615 484.461H496.762C499.531 484.461 500.916 484.923 502.762 486.77L509.222 493.233C511.068 495.079 511.53 496.003 511.53 498.773V503.389C511.53 506.159 511.068 507.544 508.761 509.39L503.223 514.93L509.222 520.932C511.068 522.778 511.53 524.163 511.53 526.933V531.549C511.53 533.858 510.607 535.704 508.761 537.551L502.3 543.552C500.454 545.399 499.07 545.861 496.301 545.861H449.692C446.923 545.861 446 544.937 446 542.167V488.155H446.923ZM496.301 502.927L491.686 498.311H463.075V509.39H490.763L496.301 502.927ZM492.148 533.396L496.762 528.78L490.302 522.317H462.613V533.858H492.148V533.396Z" fill="white"/>
<path d="M533.22 488.155C533.22 485.385 534.143 484.461 536.912 484.461H545.68C548.448 484.461 549.371 485.385 549.371 488.155V543.552C549.371 546.322 548.448 547.245 545.68 547.245H536.912C534.143 547.245 533.22 546.322 533.22 543.552V488.155Z" fill="white"/>
<path d="M642.127 497.849C643.973 499.696 644.435 501.081 644.435 503.851V527.395C644.435 530.165 643.973 531.55 642.127 533.396L630.59 544.937C628.745 546.784 627.36 547.246 624.591 547.246H591.365C588.596 547.246 587.212 546.784 585.366 544.937L573.829 533.396C571.983 531.55 571.521 530.165 571.521 527.395V503.851C571.521 501.081 571.983 499.696 573.829 497.849L585.366 486.308C587.212 484.462 588.596 484 591.365 484H624.591C627.36 484 628.745 484.462 630.59 486.308L642.127 497.849ZM620.899 498.773H594.595L587.212 506.159V525.548L594.595 532.934H620.899L628.283 526.01V506.159L620.899 498.773Z" fill="white"/>
<path d="M719.656 488.155C719.656 485.385 720.579 484.461 723.348 484.461H731.193C733.961 484.461 734.884 485.385 734.884 488.155V538.474C734.884 541.244 734.423 542.629 732.116 544.476L726.116 549.554C724.27 551.4 722.886 551.4 721.04 549.554L681.815 508.005V543.552C681.815 546.322 680.892 547.246 678.123 547.246H670.278C667.509 547.246 666.586 546.322 666.586 543.552V488.155C666.586 485.385 667.509 484.461 670.278 484.461H679.046C681.815 484.461 683.199 484.923 685.045 487.231L720.117 524.625L719.656 488.155Z" fill="white"/>
<path d="M758.418 488.155C758.418 485.385 759.341 484.461 762.11 484.461H770.878C773.647 484.461 774.57 485.385 774.57 488.155V543.552C774.57 546.322 773.647 547.245 770.878 547.245H762.11C759.341 547.245 758.418 546.322 758.418 543.552V488.155Z" fill="white"/>
<path d="M862.252 492.771C864.097 494.618 864.097 496.003 862.252 497.388L855.329 504.312C853.484 506.159 852.099 506.159 850.253 503.851L845.177 498.773H819.796L812.412 506.159V525.548L819.796 532.934H845.639L850.715 527.856C852.561 526.01 853.945 526.01 855.329 527.856L861.79 534.781C863.636 536.628 863.636 538.013 861.79 539.859L855.791 545.399C853.945 547.246 852.561 547.707 849.792 547.707H815.643C812.874 547.707 811.489 547.246 809.643 545.399L798.568 534.319C796.722 532.473 796.261 531.088 796.261 528.318V505.236C796.261 502.466 796.722 501.081 798.568 499.234L810.105 487.693C811.951 485.846 813.335 485.385 816.104 485.385H850.253C853.022 485.385 854.407 485.846 856.252 487.693L862.252 492.771Z" fill="white"/>
<path d="M885.324 546.784C882.555 546.784 881.632 545.86 881.632 543.091V535.704C881.632 532.934 882.555 532.011 885.324 532.011H914.397L880.709 503.851C878.402 502.004 878.402 500.619 880.248 498.773L888.554 487.693C890.4 485.385 891.784 484.923 894.092 484.923H929.625C932.394 484.923 933.317 485.846 933.317 488.616V496.003C933.317 498.772 932.394 499.696 929.625 499.696H901.475L935.163 527.856C937.47 529.703 937.47 531.088 935.625 532.934L926.856 544.014C925.011 546.322 923.626 546.784 921.319 546.784H885.324Z" fill="white"/>
<path d="M306 399.687C306 396.875 306.937 395.938 309.748 395.938H356.601C359.413 395.938 360.818 396.406 362.692 398.281L369.252 404.843C371.126 406.718 371.594 407.655 371.594 410.467V415.154C371.594 417.967 371.126 419.373 368.783 421.248L363.161 426.872L369.252 432.965C371.126 434.84 371.594 436.246 371.594 439.058V443.745C371.594 446.089 370.657 447.964 368.783 449.838L362.224 455.932C360.35 457.806 358.944 458.275 356.133 458.275H309.748C306.937 458.275 306 457.338 306 454.525V399.687ZM356.133 414.686L351.447 409.999H321.93V421.248H350.042L356.133 414.686ZM351.916 445.62L356.601 440.933L350.042 434.371H321.93V446.089H351.916V445.62Z" fill="white"/>
<path d="M393.615 399.687C393.615 396.875 394.552 395.938 397.363 395.938H406.266C409.077 395.938 410.014 396.875 410.014 399.687V455.932C410.014 458.744 409.077 459.681 406.266 459.681H397.363C394.552 459.681 393.615 458.744 393.615 455.932V399.687Z" fill="white"/>
<path d="M482.166 443.745C484.977 443.745 485.914 444.683 485.914 447.495V455.463C485.914 458.275 484.977 459.212 482.166 459.212H437.655C434.844 459.212 433.907 458.275 433.907 455.463V399.687C433.907 396.875 434.844 395.938 437.655 395.938H446.558C449.369 395.938 450.306 396.875 450.306 399.687V443.745H482.166Z" fill="white"/>
<path d="M551.509 443.745C554.32 443.745 555.257 444.683 555.257 447.495V455.463C555.257 458.275 554.32 459.212 551.509 459.212H506.998C504.187 459.212 503.25 458.275 503.25 455.463V399.687C503.25 396.875 504.187 395.938 506.998 395.938H515.9C518.712 395.938 519.649 396.875 519.649 399.687V443.745H551.509Z" fill="white"/>
<path d="M572.593 399.687C572.593 396.875 573.53 395.938 576.341 395.938H622.725C625.537 395.938 626.474 396.875 626.474 399.687V406.718C626.474 409.53 625.537 410.467 622.725 410.467H588.523V420.31H619.446C622.257 420.31 623.194 421.248 623.194 424.06V431.559C623.194 434.371 622.257 435.309 619.446 435.309H588.523V445.62H623.194C626.005 445.62 626.942 446.558 626.942 449.37V456.4C626.942 459.213 626.005 460.15 623.194 460.15H576.341C573.53 460.15 572.593 459.213 572.593 456.4V399.687Z" fill="white"/>
<path d="M664.896 455.463C664.896 458.275 663.959 459.213 661.147 459.213H652.245C649.434 459.213 648.497 458.275 648.497 455.463V399.687C648.497 396.875 649.434 395.938 652.245 395.938H697.224C700.035 395.938 701.441 396.406 703.315 398.281L711.28 406.249C713.154 408.124 713.623 409.53 713.623 412.342V420.779C713.623 423.591 713.154 424.997 711.28 426.872L703.784 434.371C701.909 436.246 700.972 436.715 700.035 436.715H698.63L712.686 450.307C714.56 452.182 714.56 453.588 712.686 455.463L706.595 461.087C704.721 462.962 703.315 462.962 701.441 460.619L680.357 439.058H665.364V455.463H664.896ZM664.896 424.997H692.539L697.224 420.31V415.154L692.539 410.467H664.427L664.896 424.997Z" fill="white"/>
<path d="M735.643 399.687C735.643 396.875 736.58 395.938 739.391 395.938H748.293C751.104 395.938 752.041 396.875 752.041 399.687V455.932C752.041 458.744 751.104 459.681 748.293 459.681H739.391C736.58 459.681 735.643 458.744 735.643 455.932V399.687Z" fill="white"/>
<path d="M841.061 404.374C842.936 406.249 842.936 407.655 841.061 409.061L834.033 416.092C832.159 417.967 830.754 417.967 828.88 415.623L823.726 410.467H797.957L790.46 417.967V437.652L797.957 445.152H824.194L829.348 439.996C831.222 438.121 832.628 438.121 834.033 439.996L840.593 447.026C842.467 448.901 842.467 450.307 840.593 452.182L834.502 457.807C832.628 459.681 831.222 460.15 828.411 460.15H793.74C790.929 460.15 789.523 459.681 787.649 457.807L776.404 446.558C774.53 444.683 774.062 443.277 774.062 440.465V417.029C774.062 414.217 774.53 412.811 776.404 410.936L788.117 399.218C789.992 397.344 791.397 396.875 794.208 396.875H828.88C831.691 396.875 833.096 397.344 834.97 399.218L841.061 404.374Z" fill="white"/>
<path d="M926.334 455.463C926.334 458.275 925.397 459.213 922.586 459.213H913.684C910.872 459.213 910.404 458.275 910.404 455.463V443.745H877.138V455.932C877.138 458.744 876.201 459.681 873.39 459.681H865.425C862.614 459.681 861.677 458.744 861.677 455.932V423.122C861.677 420.31 862.145 418.904 864.019 417.029L882.761 397.812C884.635 395.937 886.04 395 888.851 395H899.159C901.97 395 903.376 395.469 905.25 397.812L923.523 417.029C925.397 418.904 925.865 420.779 925.865 423.122V455.463H926.334ZM894.005 408.124L877.607 424.06V429.684H910.872V424.06L894.005 408.124Z" fill="white"/>
<path d="M208.642 93.0205C220.029 93.0205 229.264 102.256 229.264 113.651C229.264 125.047 220.029 134.282 208.642 134.282C197.254 134.282 188.021 125.047 188.021 113.651C188.021 102.256 197.254 93.0207 208.642 93.0205Z" stroke="white" stroke-width="8.04086"/>
<path d="M508 114H1000.09L1054 182.556V420.526L992.096 478" stroke="white" stroke-width="10.7211"/>
<path d="M225 96.2161L269.57 46H1015.98L1136.75 166.5V479.5L988.901 587.456" stroke="white" stroke-width="10.7211"/>
<path d="M488.685 93.2585C477.297 93.2585 468.062 102.494 468.062 113.889C468.063 125.285 477.297 134.52 488.685 134.52C500.072 134.52 509.306 125.285 509.306 113.889C509.306 102.494 500.072 93.2587 488.685 93.2585Z" stroke="white" stroke-width="8.04086"/>
<path d="M970.903 569.021C961.028 569.021 953.021 577.03 953.021 586.912C953.021 596.795 961.028 604.804 970.903 604.804C980.779 604.804 988.787 596.795 988.787 586.912C988.787 577.029 980.779 569.021 970.903 569.021Z" stroke="white" stroke-width="8.04086"/>
<path d="M243.222 351.96C243.222 359.832 240.898 362.611 232.533 362.611L206.973 363.074C199.537 363.074 196.748 360.758 197.213 352.423L197.678 325.563L98.2242 326.026C90.7884 326.026 88 323.71 88 315.837V284.346C88 276.473 89.8589 272.306 95.4358 266.285L165.611 191.725C171.188 185.705 175.37 183.853 183.271 183.853H232.998C240.898 183.853 243.222 186.168 243.222 194.041L242.757 285.272L270.177 284.809C278.077 284.809 280.866 287.125 280.866 294.998V315.837C280.866 323.71 278.542 326.026 270.177 326.026L242.757 325.563V351.96H243.222ZM189.777 223.68L139.586 278.789V285.272H198.607L199.072 222.29L189.777 223.68Z" fill="white"/>
<path d="M465.832 289.903C462.578 291.756 459.325 292.219 454.213 292.219H375.672C367.772 292.219 363.589 290.366 358.477 285.272L338.493 265.359C333.381 260.265 331.522 256.097 331.522 248.224L331.058 226.458C331.058 222.29 332.583 216.355 334.311 214.417C338.029 210.249 334.311 214.417 338.029 210.249L359.407 188.947C364.519 183.852 368.701 182 376.602 182H461.184C469.085 182 473.267 183.852 478.844 189.41L500.222 210.712C505.334 215.807 507.658 220.438 507.658 228.31V312.595C507.658 320.468 505.799 324.636 500.222 330.193L474.662 355.664C469.549 360.758 464.902 363.074 457.002 363.074H367.307C359.407 363.074 355.224 361.221 350.112 356.127L341.282 347.328C335.705 341.771 335.705 338.066 340.817 332.972L357.083 316.763C362.195 311.669 365.913 311.206 371.025 316.763L378.461 324.636H449.101L465.832 308.427V289.903ZM465.832 243.13V231.552L452.354 220.901H384.967L374.278 231.552V243.13L384.967 253.781H452.819L465.832 243.13Z" fill="white"/>
<path d="M929.173 289.903C925.92 291.756 922.667 292.219 917.555 292.219H839.014C831.114 292.219 826.931 290.366 821.819 285.272L801.835 265.359C796.723 260.265 794.864 256.097 794.864 248.224L794.399 226.458C794.399 222.29 795.924 216.355 797.653 214.417C801.37 210.249 797.653 214.417 801.37 210.249L822.748 188.947C827.861 183.852 832.043 182 839.944 182H924.526C932.426 182 936.609 183.852 942.186 189.41L963.564 210.712C968.676 215.807 970.999 220.438 970.999 228.31V312.595C970.999 320.468 969.141 324.636 963.564 330.193L938.003 355.664C932.891 360.758 928.244 363.074 920.343 363.074H830.649C822.748 363.074 818.566 361.221 813.454 356.127L804.624 347.328C799.047 341.771 799.047 338.066 804.159 332.972L820.425 316.763C825.537 311.669 829.255 311.206 834.367 316.763L841.803 324.636H912.443L929.173 308.427V289.903ZM929.173 243.13V231.552L915.696 220.901H848.309L837.62 231.552V243.13L848.309 253.781H916.16L929.173 243.13Z" fill="white"/>
<path d="M736.306 221.827C741.418 226.921 743.277 231.089 743.277 238.962V307.501C743.277 315.374 741.418 319.542 735.841 325.099L703.774 356.59C698.198 362.148 693.55 364 686.114 364H619.657C611.756 364 607.574 362.148 602.462 357.054L569.465 324.636C564.353 319.542 562.494 315.374 562.494 307.501V239.425C562.494 231.552 564.353 227.384 569.465 222.29L602.462 189.873C607.574 184.779 611.756 182.926 619.657 182.926H686.579C694.48 182.926 698.662 184.779 703.774 189.873L736.306 221.827ZM676.82 224.143H628.952L608.503 244.519V301.944L628.487 321.858H676.355L696.803 301.481L697.268 243.593L676.82 224.143Z" fill="white"/>
<path d="M978.904 475.021C988.78 475.021 996.787 483.03 996.787 492.912C996.787 502.795 988.78 510.804 978.904 510.804C969.029 510.804 961.021 502.795 961.021 492.912C961.021 483.029 969.029 475.021 978.904 475.021Z" stroke="white" stroke-width="8.04086"/>
</svg>
